<svg width="141" height="141" viewBox="0 0 141 141" fill="none" xmlns="http://www.w3.org/2000/svg">
<rect width="140.346" height="140.346" rx="22.4554" fill="#578980"/>
<path d="M72.9058 113.839C70.0471 113.657 67.1977 113.491 64.6714 114.166C63.2956 114.534 63.013 115.072 62.9888 115.35C62.9577 115.709 63.2373 116.409 64.4214 117.252C64.955 117.632 65.5741 117.947 66.2271 118.225C69.756 119.727 73.2507 119.936 76.7876 119.597C79.941 119.295 83.0303 118.573 86.2437 117.953C83.7599 117.071 81.232 116.179 78.3872 115.226C77.4465 114.975 76.4438 114.634 75.5718 114.377C74.6464 114.104 73.7697 113.894 72.9058 113.839ZM93.1001 26.9678C80.8154 21.5757 67.9863 20.9035 54.7456 21.2793C45.6081 21.5386 37.1408 23.7631 28.9302 28.5566C21.8431 33.3177 17.4345 39.3007 17.8901 48.2012C18.2022 54.2957 20.9278 58.7584 26.0308 61.6836C33.2739 65.8355 40.8471 64.7846 48.7358 62.4814C50.9022 61.8489 52.301 60.9213 53.1802 59.6895C54.0648 58.4498 54.5023 56.7921 54.5249 54.5449C54.5765 49.3998 55.9668 44.4227 59.0767 40.1016C61.4641 36.7843 65.3814 35.3159 68.6431 36.8076C71.8436 38.2715 73.3128 41.9325 72.5962 45.8418C71.3095 52.861 67.1383 57.9717 61.7612 62.0479C60.9955 62.6284 60.5401 63.1886 60.2681 63.792C59.9932 64.4016 59.8742 65.1241 59.8901 66.0791C60.0076 73.1028 59.9351 80.1369 59.9351 87.1416V109.109C67.1196 105.832 74.0071 107.761 80.5425 109.655C84.0862 110.683 87.848 111.633 91.2856 113.231C92.9706 114.015 94.4297 114.215 95.8081 114.013C97.2026 113.808 98.5836 113.181 100.089 112.195C113.05 103.713 120.67 92.101 122.234 76.5557C124.424 54.7876 113.148 35.7672 93.1001 26.9678ZM65.8071 42.9102C65.4403 43.109 65.1074 43.2821 64.7886 43.4688C64.1207 43.8597 63.7768 44.1703 63.6567 44.459C62.2739 47.7854 61.4113 51.3055 60.2476 55.292C60.2439 55.3932 60.2447 55.4823 60.2485 55.5605C60.2934 55.5073 60.3415 55.4467 60.3892 55.377C62.6292 52.0997 64.8227 48.8186 66.5767 45.3438L66.5942 45.2988C66.6113 45.2391 66.624 45.1325 66.604 44.9541C66.5776 44.7187 66.5023 44.4295 66.3843 44.0801C66.2656 43.7285 66.1241 43.3734 65.9751 42.9766C65.9585 42.9325 65.9429 42.8876 65.9263 42.8428C65.886 42.8648 65.8469 42.8886 65.8071 42.9102ZM127.039 122.982L125.95 124.071L125.669 124.353L125.573 124.449L125.45 124.51L124.889 124.791L124.679 124.896L124.446 124.877L123.779 124.824C120.822 124.903 117.84 124.871 114.841 124.794L114.78 124.792L114.718 124.781C109.351 123.845 104.111 123.11 99.0171 121.856C96.8483 121.323 95.0271 121.418 93.0063 122.112C84.7804 124.94 76.2683 126.459 67.4976 124.827C65.9909 124.547 64.5503 124.022 63.1519 123.445C62.0197 122.979 60.9538 122.497 59.8481 122.048C59.8195 122.17 59.7928 122.296 59.7593 122.421C59.6332 122.89 59.4429 123.453 59.0796 123.917C58.6865 124.419 58.1182 124.769 57.3491 124.827C56.6275 124.881 55.7914 124.674 54.8159 124.229L54.3228 124.005V66.9014C52.9885 67.2962 51.9865 67.5822 50.9868 67.9287C43.8408 70.4051 36.5559 71.284 29.02 69.3877C20.5467 67.2555 15.2677 61.6209 12.9878 54.9746C10.7171 48.3549 11.4234 40.7449 14.8491 34.5957C19.8964 25.536 28.17 20.5377 37.7642 18.1465C59.0345 12.8453 80.0717 13.4362 100.056 23.5889C124.763 36.1409 135.377 67.1618 124.282 93.1045C120.367 102.257 114.297 109.629 106.203 115.361C105.61 115.781 105.056 116.232 104.533 116.781C111.043 118.418 117.486 119.199 123.854 119.02L123.99 119.016L124.12 119.055L125.877 119.582L126.167 119.669L126.335 119.922L126.897 120.764L127.039 120.976V122.982Z" fill="white" stroke="white" stroke-width="1.68415"/>
<path d="M123.807 123.982L123.878 119.861" stroke="white" stroke-width="1.68415"/>
<rect x="40.5854" y="112.81" width="11.2277" height="2.24554" rx="1.12277" fill="white"/>
<rect x="40.5854" y="84.7407" width="11.2277" height="2.24554" rx="1.12277" fill="white"/>
<rect x="40.5854" y="73.5132" width="11.2277" height="2.24554" rx="1.12277" fill="white"/>
<rect x="40.5854" y="79.127" width="11.2277" height="2.24554" rx="1.12277" fill="white"/>
<rect x="40.5854" y="90.3545" width="11.2277" height="2.24554" rx="1.12277" fill="white"/>
<rect x="40.5854" y="95.9683" width="11.2277" height="2.24554" rx="1.12277" fill="white"/>
<rect x="40.5854" y="101.582" width="11.2277" height="2.24554" rx="1.12277" fill="white"/>
<rect x="40.5854" y="107.196" width="11.2277" height="2.24554" rx="1.12277" fill="white"/>
</svg>
