<svg width="481" height="113" viewBox="0 0 481 113" fill="none" xmlns="http://www.w3.org/2000/svg">
<mask id="path-1-outside-1_1_288" maskUnits="userSpaceOnUse" x="177.918" y="6.74811" width="239" height="106" fill="black">
<rect fill="white" x="177.918" y="6.74811" width="239" height="106"/>
<path d="M407.653 101.622C409.065 100.924 410.293 99.2555 411.667 101.145C413.083 103.093 411.649 104.278 410.195 105.237C408.328 106.468 406.465 107.773 404.437 108.68C396.333 112.301 388.932 109.768 384.72 101.943C383.454 99.5897 382.535 97.0492 381.342 94.3349C380.488 95.3325 379.644 96.3983 378.717 97.3864C375.591 100.717 372.573 104.167 369.251 107.291C366.326 110.04 362.676 110.919 358.839 109.383C354.873 107.796 353.282 104.314 353.259 100.396C353.226 94.7085 353.77 89.0195 353.972 83.3277C354.062 80.8119 354.125 78.2638 353.837 75.7723C353.041 68.8726 346.899 66.3061 341.333 70.4993C336.862 73.867 333.904 78.4587 332.027 83.5892C329.144 91.4701 326.641 99.4923 324.072 107.485C323.464 109.374 322.662 110.519 320.228 109.716C320.228 98.6874 320.228 87.5577 320.228 76.4281C320.046 76.3624 319.864 76.2966 319.682 76.2309C319.251 77.1728 318.769 78.0949 318.398 79.0599C315.273 87.1882 311.747 95.1216 306.543 102.168C299.661 111.485 289.286 113.092 279.672 106.612C278.658 105.928 276.885 105.843 275.624 106.147C271.28 107.194 267.062 108.803 262.695 109.709C255.146 111.275 248.627 108.912 244.057 102.796C240.162 97.5831 236.957 91.8462 233.579 86.2609C231.988 83.6287 230.606 80.8542 229.33 78.0531C228.679 76.6252 227.821 76.2011 226.333 76.1933C224 76.1811 221.606 76.193 219.357 75.6759C217.539 75.258 215.65 74.3648 214.239 73.1597C212.377 71.569 212.174 69.2246 213.155 66.9633C214.081 64.8276 215.948 64.0303 218.15 63.9948C222.497 63.9248 225.951 65.9458 228.608 69.1358C230.198 71.0447 231.697 71.2694 233.894 70.5451C244.987 66.8874 254.538 61.2291 259.882 50.2995C265.446 38.9191 261.009 25.7831 249.839 19.7914C241.557 15.3488 232.666 15.0495 223.63 15.8944C222.443 16.0053 221.185 16.8412 220.236 17.6612C218.76 18.9381 217.558 20.5281 216.17 21.9149C214.128 23.9552 213.442 26.3467 213.362 29.2461C212.76 50.9797 210.099 72.4855 205.445 93.7148C204.538 97.8507 202.729 101.848 200.902 105.703C199.626 108.394 197.313 110.558 193.977 109.932C190.581 109.295 188.848 106.497 188.81 103.389C188.723 96.225 188.483 88.9578 189.506 81.907C192.078 64.1768 197.086 47.0852 205.032 30.944C205.731 29.5245 206.647 28.2138 207.389 26.8136C207.953 25.7483 208.814 24.6181 208.806 23.5223C208.793 21.7288 208.537 19.7159 207.63 18.2679C207.303 17.7464 204.564 18.1729 203.333 18.878C197.764 22.0697 192.33 25.4991 186.873 28.8851C185.847 29.5218 185.031 30.5615 183.95 31.0256C183.069 31.404 181.938 31.2003 180.918 31.2547C181.092 30.2741 181.194 29.2718 181.476 28.323C181.593 27.9262 182.083 27.6313 182.422 27.3098C187.969 22.0492 194.183 17.7845 201.29 14.9178C207.509 12.4095 209.052 12.8629 212.975 18.1855C215.535 15.8744 218.056 13.5525 220.633 11.2953C221.684 10.3748 222.753 9.294 224.012 8.85405C224.881 8.55047 226.79 8.93978 227.019 9.50857C227.782 11.4034 229.172 11.245 230.651 11.2985C237.212 11.5354 243.74 12.0343 249.813 14.8506C268.091 23.3263 272.124 45.5662 258.203 60.5764C252.607 66.6094 245.987 70.9449 238.211 73.5679C236.623 74.1037 235.05 74.6828 233.093 75.3751C234.314 77.8524 235.35 80.2101 236.605 82.4443C239.485 87.5706 242.206 92.8148 245.477 97.6858C250.49 105.152 256.513 107.178 265.163 104.8C268.182 103.97 271.125 102.859 274.43 101.768C271.419 95.7612 270.646 89.8296 271.264 83.6709C272.258 73.7555 278.847 65.8688 287.551 64.2451C294.447 62.9588 300.908 66.0284 302.644 71.8898C304.478 78.0825 302.998 83.9728 298.688 88.6042C294.521 93.0827 289.644 96.9021 285.065 100.996C284.398 101.593 283.655 102.106 282.922 102.677C287.25 107.036 295.241 107.438 299.533 102.796C303.27 98.7524 306.395 93.9501 308.938 89.0416C312.321 82.5132 314.815 75.529 317.828 68.8017C318.676 66.9065 319.056 63.8718 322.14 64.6152C324.965 65.2962 324.54 68.09 324.568 70.2685C324.645 76.1488 324.595 82.0306 324.595 87.9118C324.92 87.9764 325.246 88.041 325.571 88.1055C325.986 87.1494 326.333 86.1567 326.827 85.2435C329.439 80.4158 331.77 75.3942 334.822 70.8596C337.375 67.0652 341.14 64.5729 346.098 64.4661C352.388 64.3307 356.541 66.9015 357.663 73.1173C358.495 77.7221 358.088 82.5726 358.017 87.3104C357.971 90.3871 357.468 93.4544 357.31 96.5331C357.239 97.9181 357.389 99.3428 357.645 100.711C358.576 105.704 362.533 107.257 366.534 104.097C368.353 102.661 370.014 100.944 371.452 99.1226C374.227 95.6059 376.812 91.9376 379.428 88.2971C379.845 87.7164 380.246 86.9555 380.252 86.2744C380.312 79.2819 380.289 72.2887 380.289 64.8947C378.687 64.8947 377.125 64.9685 375.572 64.8746C373.901 64.7737 372.19 64.6909 370.598 64.2419C369.937 64.0558 369.114 62.9167 369.15 62.2545C369.182 61.6812 370.28 60.7834 370.985 60.7019C373.206 60.4449 375.467 60.3944 377.706 60.4696C380.415 60.5605 381.575 59.5558 382.001 56.7044C382.73 51.8246 383.945 47.0045 385.191 42.2206C385.749 40.0798 386.708 37.9941 387.784 36.0488C389.604 32.7571 391.803 31.6922 394.58 32.3809C397.065 32.9971 398.796 35.0981 398.607 38.6956C398.284 44.8252 397.446 50.9283 396.794 57.0392C396.696 57.951 396.43 58.8447 396.132 60.2772C402.431 60.2772 408.462 60.2772 414.333 60.2772C415.481 63.9204 415.192 64.498 412.103 64.6043C406.963 64.7812 401.818 64.8834 396.677 64.8517C394.977 64.8412 394.271 65.4784 393.653 66.9945C391.295 72.7797 388.665 78.4556 386.37 84.2644C385.698 85.9655 385.326 88.0565 385.645 89.8194C386.235 93.0894 387.033 96.4435 388.465 99.4151C391.53 105.775 397.178 107.461 403.472 104.282C404.879 103.571 406.151 102.591 407.653 101.622ZM194.405 77.3039C193.911 80.6311 193.178 83.944 192.978 87.2887C192.685 92.2162 192.641 97.1705 192.792 102.104C192.828 103.278 194.055 104.416 194.735 105.57C195.721 104.713 197.175 104.045 197.61 102.966C199.137 99.1719 200.894 95.3282 201.522 91.3393C204.02 75.4805 206.162 59.5649 208.342 43.6576C208.776 40.4965 208.798 37.2792 209.01 34.0878C208.768 34.0449 208.527 34.0019 208.285 33.959C201.803 47.6265 197.427 61.991 194.405 77.3039ZM277.945 76.682C274.506 84.3917 274.675 91.9442 278.929 100.087C282.958 96.9863 286.742 94.3064 290.254 91.3079C293.895 88.1995 297.013 84.5897 298.448 79.8558C300.563 72.8812 296.524 67.8004 289.313 68.4292C284.096 68.8842 280.663 71.9909 277.945 76.682ZM393.883 49.8793C394.247 45.4834 395.688 41.038 393.414 35.8943C392.356 37.3912 391.463 38.1647 391.196 39.1142C389.496 45.1722 387.877 51.2553 386.377 57.3658C386.114 58.4385 385.478 60.1974 387.565 60.448C389.305 60.657 391.238 60.8882 391.831 58.4852C392.499 55.7802 393.129 53.0656 393.883 49.8793ZM385.918 65.071C385.398 68.6478 384.879 72.2246 384.359 75.8014C384.723 75.8721 385.087 75.9428 385.452 76.0134C386.954 72.4951 388.456 68.9768 390.164 64.975C388.51 64.975 387.437 64.975 385.918 65.071ZM219.692 68.1873C218.898 68.3639 218.103 68.5406 217.154 68.7514C219.015 71.6151 221.789 72.4005 225.249 70.98C223.303 69.9692 221.7 69.1368 219.692 68.1873Z"/>
</mask>
<path d="M407.653 101.622C409.065 100.924 410.293 99.2555 411.667 101.145C413.083 103.093 411.649 104.278 410.195 105.237C408.328 106.468 406.465 107.773 404.437 108.68C396.333 112.301 388.932 109.768 384.72 101.943C383.454 99.5897 382.535 97.0492 381.342 94.3349C380.488 95.3325 379.644 96.3983 378.717 97.3864C375.591 100.717 372.573 104.167 369.251 107.291C366.326 110.04 362.676 110.919 358.839 109.383C354.873 107.796 353.282 104.314 353.259 100.396C353.226 94.7085 353.77 89.0195 353.972 83.3277C354.062 80.8119 354.125 78.2638 353.837 75.7723C353.041 68.8726 346.899 66.3061 341.333 70.4993C336.862 73.867 333.904 78.4587 332.027 83.5892C329.144 91.4701 326.641 99.4923 324.072 107.485C323.464 109.374 322.662 110.519 320.228 109.716C320.228 98.6874 320.228 87.5577 320.228 76.4281C320.046 76.3624 319.864 76.2966 319.682 76.2309C319.251 77.1728 318.769 78.0949 318.398 79.0599C315.273 87.1882 311.747 95.1216 306.543 102.168C299.661 111.485 289.286 113.092 279.672 106.612C278.658 105.928 276.885 105.843 275.624 106.147C271.28 107.194 267.062 108.803 262.695 109.709C255.146 111.275 248.627 108.912 244.057 102.796C240.162 97.5831 236.957 91.8462 233.579 86.2609C231.988 83.6287 230.606 80.8542 229.33 78.0531C228.679 76.6252 227.821 76.2011 226.333 76.1933C224 76.1811 221.606 76.193 219.357 75.6759C217.539 75.258 215.65 74.3648 214.239 73.1597C212.377 71.569 212.174 69.2246 213.155 66.9633C214.081 64.8276 215.948 64.0303 218.15 63.9948C222.497 63.9248 225.951 65.9458 228.608 69.1358C230.198 71.0447 231.697 71.2694 233.894 70.5451C244.987 66.8874 254.538 61.2291 259.882 50.2995C265.446 38.9191 261.009 25.7831 249.839 19.7914C241.557 15.3488 232.666 15.0495 223.63 15.8944C222.443 16.0053 221.185 16.8412 220.236 17.6612C218.76 18.9381 217.558 20.5281 216.17 21.9149C214.128 23.9552 213.442 26.3467 213.362 29.2461C212.76 50.9797 210.099 72.4855 205.445 93.7148C204.538 97.8507 202.729 101.848 200.902 105.703C199.626 108.394 197.313 110.558 193.977 109.932C190.581 109.295 188.848 106.497 188.81 103.389C188.723 96.225 188.483 88.9578 189.506 81.907C192.078 64.1768 197.086 47.0852 205.032 30.944C205.731 29.5245 206.647 28.2138 207.389 26.8136C207.953 25.7483 208.814 24.6181 208.806 23.5223C208.793 21.7288 208.537 19.7159 207.63 18.2679C207.303 17.7464 204.564 18.1729 203.333 18.878C197.764 22.0697 192.33 25.4991 186.873 28.8851C185.847 29.5218 185.031 30.5615 183.95 31.0256C183.069 31.404 181.938 31.2003 180.918 31.2547C181.092 30.2741 181.194 29.2718 181.476 28.323C181.593 27.9262 182.083 27.6313 182.422 27.3098C187.969 22.0492 194.183 17.7845 201.29 14.9178C207.509 12.4095 209.052 12.8629 212.975 18.1855C215.535 15.8744 218.056 13.5525 220.633 11.2953C221.684 10.3748 222.753 9.294 224.012 8.85405C224.881 8.55047 226.79 8.93978 227.019 9.50857C227.782 11.4034 229.172 11.245 230.651 11.2985C237.212 11.5354 243.74 12.0343 249.813 14.8506C268.091 23.3263 272.124 45.5662 258.203 60.5764C252.607 66.6094 245.987 70.9449 238.211 73.5679C236.623 74.1037 235.05 74.6828 233.093 75.3751C234.314 77.8524 235.35 80.2101 236.605 82.4443C239.485 87.5706 242.206 92.8148 245.477 97.6858C250.49 105.152 256.513 107.178 265.163 104.8C268.182 103.97 271.125 102.859 274.43 101.768C271.419 95.7612 270.646 89.8296 271.264 83.6709C272.258 73.7555 278.847 65.8688 287.551 64.2451C294.447 62.9588 300.908 66.0284 302.644 71.8898C304.478 78.0825 302.998 83.9728 298.688 88.6042C294.521 93.0827 289.644 96.9021 285.065 100.996C284.398 101.593 283.655 102.106 282.922 102.677C287.25 107.036 295.241 107.438 299.533 102.796C303.27 98.7524 306.395 93.9501 308.938 89.0416C312.321 82.5132 314.815 75.529 317.828 68.8017C318.676 66.9065 319.056 63.8718 322.14 64.6152C324.965 65.2962 324.54 68.09 324.568 70.2685C324.645 76.1488 324.595 82.0306 324.595 87.9118C324.92 87.9764 325.246 88.041 325.571 88.1055C325.986 87.1494 326.333 86.1567 326.827 85.2435C329.439 80.4158 331.77 75.3942 334.822 70.8596C337.375 67.0652 341.14 64.5729 346.098 64.4661C352.388 64.3307 356.541 66.9015 357.663 73.1173C358.495 77.7221 358.088 82.5726 358.017 87.3104C357.971 90.3871 357.468 93.4544 357.31 96.5331C357.239 97.9181 357.389 99.3428 357.645 100.711C358.576 105.704 362.533 107.257 366.534 104.097C368.353 102.661 370.014 100.944 371.452 99.1226C374.227 95.6059 376.812 91.9376 379.428 88.2971C379.845 87.7164 380.246 86.9555 380.252 86.2744C380.312 79.2819 380.289 72.2887 380.289 64.8947C378.687 64.8947 377.125 64.9685 375.572 64.8746C373.901 64.7737 372.19 64.6909 370.598 64.2419C369.937 64.0558 369.114 62.9167 369.15 62.2545C369.182 61.6812 370.28 60.7834 370.985 60.7019C373.206 60.4449 375.467 60.3944 377.706 60.4696C380.415 60.5605 381.575 59.5558 382.001 56.7044C382.73 51.8246 383.945 47.0045 385.191 42.2206C385.749 40.0798 386.708 37.9941 387.784 36.0488C389.604 32.7571 391.803 31.6922 394.58 32.3809C397.065 32.9971 398.796 35.0981 398.607 38.6956C398.284 44.8252 397.446 50.9283 396.794 57.0392C396.696 57.951 396.43 58.8447 396.132 60.2772C402.431 60.2772 408.462 60.2772 414.333 60.2772C415.481 63.9204 415.192 64.498 412.103 64.6043C406.963 64.7812 401.818 64.8834 396.677 64.8517C394.977 64.8412 394.271 65.4784 393.653 66.9945C391.295 72.7797 388.665 78.4556 386.37 84.2644C385.698 85.9655 385.326 88.0565 385.645 89.8194C386.235 93.0894 387.033 96.4435 388.465 99.4151C391.53 105.775 397.178 107.461 403.472 104.282C404.879 103.571 406.151 102.591 407.653 101.622ZM194.405 77.3039C193.911 80.6311 193.178 83.944 192.978 87.2887C192.685 92.2162 192.641 97.1705 192.792 102.104C192.828 103.278 194.055 104.416 194.735 105.57C195.721 104.713 197.175 104.045 197.61 102.966C199.137 99.1719 200.894 95.3282 201.522 91.3393C204.02 75.4805 206.162 59.5649 208.342 43.6576C208.776 40.4965 208.798 37.2792 209.01 34.0878C208.768 34.0449 208.527 34.0019 208.285 33.959C201.803 47.6265 197.427 61.991 194.405 77.3039ZM277.945 76.682C274.506 84.3917 274.675 91.9442 278.929 100.087C282.958 96.9863 286.742 94.3064 290.254 91.3079C293.895 88.1995 297.013 84.5897 298.448 79.8558C300.563 72.8812 296.524 67.8004 289.313 68.4292C284.096 68.8842 280.663 71.9909 277.945 76.682ZM393.883 49.8793C394.247 45.4834 395.688 41.038 393.414 35.8943C392.356 37.3912 391.463 38.1647 391.196 39.1142C389.496 45.1722 387.877 51.2553 386.377 57.3658C386.114 58.4385 385.478 60.1974 387.565 60.448C389.305 60.657 391.238 60.8882 391.831 58.4852C392.499 55.7802 393.129 53.0656 393.883 49.8793ZM385.918 65.071C385.398 68.6478 384.879 72.2246 384.359 75.8014C384.723 75.8721 385.087 75.9428 385.452 76.0134C386.954 72.4951 388.456 68.9768 390.164 64.975C388.51 64.975 387.437 64.975 385.918 65.071ZM219.692 68.1873C218.898 68.3639 218.103 68.5406 217.154 68.7514C219.015 71.6151 221.789 72.4005 225.249 70.98C223.303 69.9692 221.7 69.1368 219.692 68.1873Z" fill="#578980"/>
<path d="M407.653 101.622C409.065 100.924 410.293 99.2555 411.667 101.145C413.083 103.093 411.649 104.278 410.195 105.237C408.328 106.468 406.465 107.773 404.437 108.68C396.333 112.301 388.932 109.768 384.72 101.943C383.454 99.5897 382.535 97.0492 381.342 94.3349C380.488 95.3325 379.644 96.3983 378.717 97.3864C375.591 100.717 372.573 104.167 369.251 107.291C366.326 110.04 362.676 110.919 358.839 109.383C354.873 107.796 353.282 104.314 353.259 100.396C353.226 94.7085 353.77 89.0195 353.972 83.3277C354.062 80.8119 354.125 78.2638 353.837 75.7723C353.041 68.8726 346.899 66.3061 341.333 70.4993C336.862 73.867 333.904 78.4587 332.027 83.5892C329.144 91.4701 326.641 99.4923 324.072 107.485C323.464 109.374 322.662 110.519 320.228 109.716C320.228 98.6874 320.228 87.5577 320.228 76.4281C320.046 76.3624 319.864 76.2966 319.682 76.2309C319.251 77.1728 318.769 78.0949 318.398 79.0599C315.273 87.1882 311.747 95.1216 306.543 102.168C299.661 111.485 289.286 113.092 279.672 106.612C278.658 105.928 276.885 105.843 275.624 106.147C271.28 107.194 267.062 108.803 262.695 109.709C255.146 111.275 248.627 108.912 244.057 102.796C240.162 97.5831 236.957 91.8462 233.579 86.2609C231.988 83.6287 230.606 80.8542 229.33 78.0531C228.679 76.6252 227.821 76.2011 226.333 76.1933C224 76.1811 221.606 76.193 219.357 75.6759C217.539 75.258 215.65 74.3648 214.239 73.1597C212.377 71.569 212.174 69.2246 213.155 66.9633C214.081 64.8276 215.948 64.0303 218.15 63.9948C222.497 63.9248 225.951 65.9458 228.608 69.1358C230.198 71.0447 231.697 71.2694 233.894 70.5451C244.987 66.8874 254.538 61.2291 259.882 50.2995C265.446 38.9191 261.009 25.7831 249.839 19.7914C241.557 15.3488 232.666 15.0495 223.63 15.8944C222.443 16.0053 221.185 16.8412 220.236 17.6612C218.76 18.9381 217.558 20.5281 216.17 21.9149C214.128 23.9552 213.442 26.3467 213.362 29.2461C212.76 50.9797 210.099 72.4855 205.445 93.7148C204.538 97.8507 202.729 101.848 200.902 105.703C199.626 108.394 197.313 110.558 193.977 109.932C190.581 109.295 188.848 106.497 188.81 103.389C188.723 96.225 188.483 88.9578 189.506 81.907C192.078 64.1768 197.086 47.0852 205.032 30.944C205.731 29.5245 206.647 28.2138 207.389 26.8136C207.953 25.7483 208.814 24.6181 208.806 23.5223C208.793 21.7288 208.537 19.7159 207.63 18.2679C207.303 17.7464 204.564 18.1729 203.333 18.878C197.764 22.0697 192.33 25.4991 186.873 28.8851C185.847 29.5218 185.031 30.5615 183.95 31.0256C183.069 31.404 181.938 31.2003 180.918 31.2547C181.092 30.2741 181.194 29.2718 181.476 28.323C181.593 27.9262 182.083 27.6313 182.422 27.3098C187.969 22.0492 194.183 17.7845 201.29 14.9178C207.509 12.4095 209.052 12.8629 212.975 18.1855C215.535 15.8744 218.056 13.5525 220.633 11.2953C221.684 10.3748 222.753 9.294 224.012 8.85405C224.881 8.55047 226.79 8.93978 227.019 9.50857C227.782 11.4034 229.172 11.245 230.651 11.2985C237.212 11.5354 243.74 12.0343 249.813 14.8506C268.091 23.3263 272.124 45.5662 258.203 60.5764C252.607 66.6094 245.987 70.9449 238.211 73.5679C236.623 74.1037 235.05 74.6828 233.093 75.3751C234.314 77.8524 235.35 80.2101 236.605 82.4443C239.485 87.5706 242.206 92.8148 245.477 97.6858C250.49 105.152 256.513 107.178 265.163 104.8C268.182 103.97 271.125 102.859 274.43 101.768C271.419 95.7612 270.646 89.8296 271.264 83.6709C272.258 73.7555 278.847 65.8688 287.551 64.2451C294.447 62.9588 300.908 66.0284 302.644 71.8898C304.478 78.0825 302.998 83.9728 298.688 88.6042C294.521 93.0827 289.644 96.9021 285.065 100.996C284.398 101.593 283.655 102.106 282.922 102.677C287.25 107.036 295.241 107.438 299.533 102.796C303.27 98.7524 306.395 93.9501 308.938 89.0416C312.321 82.5132 314.815 75.529 317.828 68.8017C318.676 66.9065 319.056 63.8718 322.14 64.6152C324.965 65.2962 324.54 68.09 324.568 70.2685C324.645 76.1488 324.595 82.0306 324.595 87.9118C324.92 87.9764 325.246 88.041 325.571 88.1055C325.986 87.1494 326.333 86.1567 326.827 85.2435C329.439 80.4158 331.77 75.3942 334.822 70.8596C337.375 67.0652 341.14 64.5729 346.098 64.4661C352.388 64.3307 356.541 66.9015 357.663 73.1173C358.495 77.7221 358.088 82.5726 358.017 87.3104C357.971 90.3871 357.468 93.4544 357.31 96.5331C357.239 97.9181 357.389 99.3428 357.645 100.711C358.576 105.704 362.533 107.257 366.534 104.097C368.353 102.661 370.014 100.944 371.452 99.1226C374.227 95.6059 376.812 91.9376 379.428 88.2971C379.845 87.7164 380.246 86.9555 380.252 86.2744C380.312 79.2819 380.289 72.2887 380.289 64.8947C378.687 64.8947 377.125 64.9685 375.572 64.8746C373.901 64.7737 372.19 64.6909 370.598 64.2419C369.937 64.0558 369.114 62.9167 369.15 62.2545C369.182 61.6812 370.28 60.7834 370.985 60.7019C373.206 60.4449 375.467 60.3944 377.706 60.4696C380.415 60.5605 381.575 59.5558 382.001 56.7044C382.73 51.8246 383.945 47.0045 385.191 42.2206C385.749 40.0798 386.708 37.9941 387.784 36.0488C389.604 32.7571 391.803 31.6922 394.58 32.3809C397.065 32.9971 398.796 35.0981 398.607 38.6956C398.284 44.8252 397.446 50.9283 396.794 57.0392C396.696 57.951 396.43 58.8447 396.132 60.2772C402.431 60.2772 408.462 60.2772 414.333 60.2772C415.481 63.9204 415.192 64.498 412.103 64.6043C406.963 64.7812 401.818 64.8834 396.677 64.8517C394.977 64.8412 394.271 65.4784 393.653 66.9945C391.295 72.7797 388.665 78.4556 386.37 84.2644C385.698 85.9655 385.326 88.0565 385.645 89.8194C386.235 93.0894 387.033 96.4435 388.465 99.4151C391.53 105.775 397.178 107.461 403.472 104.282C404.879 103.571 406.151 102.591 407.653 101.622ZM194.405 77.3039C193.911 80.6311 193.178 83.944 192.978 87.2887C192.685 92.2162 192.641 97.1705 192.792 102.104C192.828 103.278 194.055 104.416 194.735 105.57C195.721 104.713 197.175 104.045 197.61 102.966C199.137 99.1719 200.894 95.3282 201.522 91.3393C204.02 75.4805 206.162 59.5649 208.342 43.6576C208.776 40.4965 208.798 37.2792 209.01 34.0878C208.768 34.0449 208.527 34.0019 208.285 33.959C201.803 47.6265 197.427 61.991 194.405 77.3039ZM277.945 76.682C274.506 84.3917 274.675 91.9442 278.929 100.087C282.958 96.9863 286.742 94.3064 290.254 91.3079C293.895 88.1995 297.013 84.5897 298.448 79.8558C300.563 72.8812 296.524 67.8004 289.313 68.4292C284.096 68.8842 280.663 71.9909 277.945 76.682ZM393.883 49.8793C394.247 45.4834 395.688 41.038 393.414 35.8943C392.356 37.3912 391.463 38.1647 391.196 39.1142C389.496 45.1722 387.877 51.2553 386.377 57.3658C386.114 58.4385 385.478 60.1974 387.565 60.448C389.305 60.657 391.238 60.8882 391.831 58.4852C392.499 55.7802 393.129 53.0656 393.883 49.8793ZM385.918 65.071C385.398 68.6478 384.879 72.2246 384.359 75.8014C384.723 75.8721 385.087 75.9428 385.452 76.0134C386.954 72.4951 388.456 68.9768 390.164 64.975C388.51 64.975 387.437 64.975 385.918 65.071ZM219.692 68.1873C218.898 68.3639 218.103 68.5406 217.154 68.7514C219.015 71.6151 221.789 72.4005 225.249 70.98C223.303 69.9692 221.7 69.1368 219.692 68.1873Z" stroke="#578980" stroke-width="3.3683" mask="url(#path-1-outside-1_1_288)"/>
<path d="M26.9323 4.14001C48.2026 -1.1612 69.2398 -0.570258 89.2242 9.5824C113.931 22.1344 124.545 53.1553 113.45 79.098C109.535 88.2507 103.465 95.6227 95.3707 101.355C94.7779 101.775 94.2239 102.226 93.7008 102.775C107.115 106.146 120.253 105.887 133.062 101.058C132.129 97.4705 130.942 93.9274 130.488 90.3676C129.047 79.0813 134.755 68.1341 144.233 64.6136C146.951 63.6042 150.191 63.0835 153.095 63.4535C157.562 64.0225 160.992 66.2988 162.943 69.6136C164.889 72.9198 165.317 77.175 163.964 81.6322C162.177 87.5231 158.292 91.9391 153.825 95.6967C150.893 98.1628 147.735 100.405 144.527 102.813C147.776 105.022 151.183 105.548 154.831 105.06C157.353 104.723 159.834 104.046 162.396 103.407C163.113 103.228 163.988 103.1 164.734 103.369C165.136 103.514 165.501 103.774 165.758 104.179C166.009 104.573 166.12 105.045 166.133 105.556C166.15 106.191 165.944 106.95 165.661 107.566C165.515 107.882 165.333 108.196 165.117 108.46C164.911 108.712 164.615 108.991 164.223 109.121C156.258 111.772 148.051 112.728 140.398 107.467H140.397C139.474 106.833 138.681 106.513 137.906 106.423C137.131 106.334 136.295 106.466 135.273 106.864C125.223 110.771 114.716 111.063 104.009 110.787L103.948 110.786L103.886 110.775C98.5193 109.839 93.2792 109.103 88.1852 107.85C86.0164 107.316 84.1952 107.411 82.1744 108.106C73.9485 110.934 65.4364 112.453 56.6656 110.821C55.159 110.54 53.7184 110.015 52.3199 109.439C51.1878 108.972 50.1219 108.491 49.0162 108.041C48.9876 108.163 48.9609 108.29 48.9274 108.414C48.8013 108.884 48.611 109.447 48.2477 109.911C47.8546 110.412 47.2863 110.763 46.5172 110.821C45.7956 110.875 44.9595 110.667 43.984 110.223L43.4908 109.998V52.8949C42.1566 53.2898 41.1545 53.5758 40.1549 53.9222C33.0089 56.3987 25.724 57.2776 18.1881 55.3812C9.71474 53.249 4.43574 47.6144 2.15588 40.9681C-0.114833 34.3485 0.591456 26.7385 4.01721 20.5892C9.06454 11.5295 17.338 6.5312 26.9323 4.14001ZM62.0739 99.8324C59.2152 99.6505 56.3657 99.4847 53.8395 100.16C52.4637 100.527 52.1811 101.066 52.1569 101.343C52.1258 101.702 52.4054 102.402 53.5895 103.245C54.1231 103.626 54.7421 103.94 55.3951 104.218C58.9241 105.721 62.4188 105.929 65.9557 105.59C69.109 105.288 72.1984 104.566 75.4117 103.947C72.928 103.064 70.4001 102.173 67.5553 101.219C66.6146 100.969 65.6119 100.628 64.7399 100.37C63.8145 100.098 62.9378 99.8874 62.0739 99.8324ZM82.2682 12.9613C69.9835 7.56926 57.1544 6.89703 43.9137 7.27283C34.7762 7.53218 26.3089 9.75658 18.0983 14.5502C11.0112 19.3112 6.60255 25.2943 7.05823 34.1947C7.37029 40.2892 10.0959 44.7519 15.1989 47.6771C22.442 51.829 30.0152 50.7781 37.9039 48.475C40.0703 47.8425 41.4691 46.9148 42.3483 45.683C43.2329 44.4434 43.6704 42.7856 43.693 40.5385C43.7446 35.3933 45.1349 30.4163 48.2448 26.0951C50.6322 22.7778 54.5494 21.3094 57.8112 22.8011C61.0117 24.265 62.4809 27.926 61.7643 31.8353C60.4775 38.8545 56.3063 43.9652 50.9293 48.0414C50.1636 48.6219 49.7082 49.1821 49.4362 49.7855C49.1613 50.3951 49.0423 51.1176 49.0582 52.0726C49.1757 59.0964 49.1032 66.1304 49.1031 73.1351V95.1029C56.2877 91.8259 63.1752 93.7541 69.7106 95.6488C73.2543 96.6761 77.0161 97.6265 80.4537 99.225C82.1387 100.008 83.5978 100.209 84.9762 100.006C86.3707 99.8012 87.7517 99.1742 89.2574 98.1888C102.218 89.7068 109.838 78.0946 111.402 62.5492C113.592 40.7812 102.316 21.7607 82.2682 12.9613ZM156.74 71.7025C154.332 69.127 151.23 68.8066 147.746 69.7269C147.094 69.899 146.478 70.1428 145.389 70.5345C140.92 73.2864 137.85 78.6931 136.815 84.3344C135.823 89.7423 136.743 95.1144 139.803 98.4222C142.887 96.2088 146.04 94.1417 148.939 91.7084C152.659 88.5868 156.155 85.4021 157.657 80.8802C158.771 77.5263 159.177 74.3098 156.74 71.7025ZM54.9752 28.9037C54.6084 29.1025 54.2755 29.2757 53.9567 29.4623C53.2887 29.8533 52.9449 30.1638 52.8248 30.4525C51.442 33.779 50.5794 37.299 49.4156 41.2855C49.412 41.3867 49.4128 41.4758 49.4166 41.5541C49.4615 41.5008 49.5096 41.4402 49.5573 41.3705C51.7973 38.0932 53.9908 34.8121 55.7448 31.3373L55.7623 31.2924C55.7793 31.2326 55.7921 31.1261 55.7721 30.9476C55.7457 30.7122 55.6704 30.4231 55.5524 30.0736C55.4337 29.7221 55.2922 29.3669 55.1432 28.9701C55.1266 28.926 55.111 28.8812 55.0944 28.8363C55.0541 28.8584 55.015 28.8821 54.9752 28.9037Z" fill="#578980" stroke="#578980" stroke-width="1.68415"/>
<path d="M479.023 36.3039L479.125 37.0285C479.251 37.9265 479.344 38.6835 479.348 39.2961C479.351 39.8995 479.272 40.5063 478.926 41.0051C478.562 41.5294 478.016 41.7791 477.441 41.9133C476.88 42.0444 476.176 42.0911 475.354 42.1193C470.106 42.2997 464.837 42.25 459.339 42.2971H449.502C448.622 50.0977 447.755 57.7716 446.84 65.884C448.034 65.4758 449.031 65.1383 450.026 64.7746C462.215 60.3213 474.087 65.3927 477.834 76.9133C481.945 89.5525 475.208 104.278 462.924 109.4C455.583 112.46 448.016 112.546 440.408 111.232C438.996 110.988 437.764 110.47 437.068 109.379C436.375 108.291 436.367 106.871 436.807 105.195L436.994 104.482L437.726 104.572C438.908 104.72 440.286 104.84 441.608 105.067C448.582 106.26 455.272 106.651 461.597 103.279C469.096 99.2813 473.643 91.0668 472.839 83.0353C472.299 77.6394 469.642 73.519 465.913 71.2267C462.185 68.9348 457.306 68.4227 452.226 70.3967C451.168 70.8077 450.156 71.3679 449.094 71.9689C448.048 72.5606 446.947 73.1953 445.783 73.6906C445.199 73.939 444.502 74.0935 443.823 74.1271C443.155 74.1602 442.421 74.0803 441.807 73.7814C441.445 73.6055 441.202 73.2978 441.045 73.0363C440.879 72.761 440.754 72.4458 440.662 72.1359C440.481 71.5249 440.393 70.8073 440.454 70.2219C441.543 59.8019 442.737 49.3932 443.918 38.9894V38.9885C443.996 38.2999 444.237 37.5407 444.372 36.9562L444.523 36.3039H479.023Z" fill="#578980" stroke="#578980" stroke-width="1.68415"/>
<rect x="29.7534" y="98.8034" width="11.2277" height="2.24554" rx="1.12277" fill="#578980"/>
<rect x="29.7534" y="70.7342" width="11.2277" height="2.24554" rx="1.12277" fill="#578980"/>
<rect x="29.7534" y="59.5065" width="11.2277" height="2.24554" rx="1.12277" fill="#578980"/>
<rect x="29.7534" y="65.1204" width="11.2277" height="2.24554" rx="1.12277" fill="#578980"/>
<rect x="29.7534" y="76.348" width="11.2277" height="2.24554" rx="1.12277" fill="#578980"/>
<rect x="29.7534" y="81.9619" width="11.2277" height="2.24554" rx="1.12277" fill="#578980"/>
<rect x="29.7534" y="87.5757" width="11.2277" height="2.24554" rx="1.12277" fill="#578980"/>
<rect x="29.7534" y="93.1895" width="11.2277" height="2.24554" rx="1.12277" fill="#578980"/>
</svg>
